<svg id="Capa_1" data-name="Capa 1" xmlns="http://www.w3.org/2000/svg" viewBox="0 0 115.66 113.86"><title>features-plan</title><path d="M207.43,113.57a3.19,3.19,0,0,0-3.19-3.19H95a3.19,3.19,0,0,0-3.19,3.19v86A3.19,3.19,0,0,0,95,202.75h61.81a3.19,3.19,0,1,0,0-6.37H98.14v-42h31.25v26a3.19,3.19,0,0,0,6.37,0V165.13H165.3a3.19,3.19,0,0,0,0-6.37H135.77V129.1a3.19,3.19,0,1,0-6.37,0V148H98.14V116.76H201.05v42H187.72v-6.67a3.19,3.19,0,1,0-6.37,0v9.85a3.19,3.19,0,0,0,3.19,3.19h16.52v52.74H178.76V200.46a3.19,3.19,0,1,0-6.37,0v20.6a3.19,3.19,0,0,0,3.19,3.19h28.66a3.19,3.19,0,0,0,3.19-3.19Z" transform="translate(-91.77 -110.38)" fill="#7b499f"/></svg>