<svg id="Capa_1" data-name="Capa 1" xmlns="http://www.w3.org/2000/svg" viewBox="0 0 120.83 118"><title>features-school</title><path d="M222.07,347.46a9.61,9.61,0,1,0-9.61-9.61A9.62,9.62,0,0,0,222.07,347.46Zm0-13.36a3.75,3.75,0,1,1-3.75,3.75A3.76,3.76,0,0,1,222.07,334.11Z" transform="translate(-161.65 -314.5)" fill="#7b499f"/><path d="M282.48,342.18a2.92,2.92,0,0,0-1.77-2.69l-57.49-24.75a2.94,2.94,0,0,0-2.32,0l-57.49,24.75a2.92,2.92,0,0,0-1.77,2.69v13.23a2.93,2.93,0,0,0,2.93,2.93h5.32v68.31h-5.06a2.93,2.93,0,0,0,0,5.86H278a2.93,2.93,0,0,0,0-5.86h-3.75V358.33h5.32a2.93,2.93,0,0,0,2.93-2.93Zm-93.86,84.46H175.76V358.33h12.87Zm19.91,0h-14V358.33h14Zm19.91,0h-14V358.33h14Zm19.9,0h-14V358.33h14Zm20,0H254.2V358.33h14.18Zm8.25-74.16H167.51v-8.37l54.56-23.49,54.56,23.49Z" transform="translate(-161.65 -314.5)" fill="#7b499f"/></svg>