<?xml version="1.0" encoding="utf-8"?>
<!-- Generator: Adobe Illustrator 21.0.0, SVG Export Plug-In . SVG Version: 6.00 Build 0)  -->
<svg version="1.1" id="Capa_1" xmlns="http://www.w3.org/2000/svg" xmlns:xlink="http://www.w3.org/1999/xlink" x="0px" y="0px"
	 viewBox="98.2 151.9 282.8 354.5" enable-background="new 98.2 151.9 282.8 354.5" xml:space="preserve">
<path fill="#8396A0" d="M234.6,152c-70.4,2.5-128.9,57.4-135.7,127.6c-1.4,14-0.6,27.6,1.9,40.6l0,0c0,0,0.2,1.5,0.9,4.4
	c2.2,9.7,5.5,19.2,9.5,28.1c14.2,33.6,47,89.8,120.5,150.9c4.5,3.8,11.1,3.8,15.7,0c73.6-61.1,106.3-117.2,120.6-151
	c4.1-8.9,7.3-18.2,9.5-28.1c0.7-2.8,0.9-4.4,0.9-4.4l0,0c1.7-8.7,2.5-17.7,2.5-26.8C381.1,213.5,315,149.2,234.6,152z M239.6,388.7
	c-51.5,0-93.3-41.8-93.3-93.3c0-51.5,41.8-93.3,93.3-93.3c51.5,0,93.3,41.8,93.3,93.3C332.9,346.9,291.2,388.7,239.6,388.7z"/>
</svg>
