<?xml version="1.0" encoding="utf-8"?>
<!-- Generator: Adobe Illustrator 21.0.0, SVG Export Plug-In . SVG Version: 6.00 Build 0)  -->
<svg version="1.1" id="Capa_1" xmlns="http://www.w3.org/2000/svg" xmlns:xlink="http://www.w3.org/1999/xlink" x="0px" y="0px"
	 viewBox="113.5 62 212.5 212.4" enable-background="new 113.5 62 212.5 212.4" xml:space="preserve">
<path fill="#E01D42" d="M218.5,62c-35.5,0-67.1,17.3-86.7,44h19c17-18.1,41-29.4,67.7-29.4c51.2,0,92.9,41.7,92.9,92.9
	c0,27.2-11.7,51.7-30.4,68.7v18.8c27.2-19.5,45-51.4,45-87.4C326,110.2,277.8,62,218.5,62z"/>
<g>
	<g id="phone-paused">
		<path fill="#E01D42" d="M258,227.7c-10.2,0-20.4-1.7-30.6-5.1c-2.6-0.9-6,0-8.5,1.7L200.2,243c-23.8-11.9-43.3-32.3-56.1-56.1
			l18.7-18.7c2.5-2.5,3.4-6,1.7-8.5c-2.5-9.3-4.3-19.5-4.3-29.8c0-5.1-3.4-8.5-8.5-8.5H122c-5.1,0-8.5,3.4-8.5,8.5
			c0,79.9,64.6,144.5,144.5,144.5c5.1,0,8.5-3.4,8.5-8.5v-29.7C266.5,231.1,263.1,227.7,258,227.7z"/>
	</g>
</g>
<g>
	<polygon fill="#E01D42" points="247,205 209,183.1 209,112.6 225,112.6 225,173.9 255,191.1 	"/>
</g>
</svg>
