<svg id="Layer_1" data-name="Layer 1" xmlns="http://www.w3.org/2000/svg" viewBox="0 0 364.9 78.03"><title>logo</title><path d="M-431,45.56l-20.15,23.68h0v53.07h57.46l19.39-23.68V45.56Zm21.37,64.78-8.18,0,0-24.88h-8.33s-.24,7-.74,10.63c-.92,6.66-2.39,9.3-4.5,11.37a12,12,0,0,1-6,3.12,14.52,14.52,0,0,1-2.79.32h-.51v-7.34h0a2.23,2.23,0,0,0,.47-.05l.09,0c2.39-.67,4.43-3.36,5.05-5.58.89-3.19,1.28-9.29,1.29-13.83,0-2,0-5,0-6.11h24.14Z" transform="translate(451.13 -44.68)" fill="#d80132"/><path d="M-254,85.4h-5V95.55h5c3.7,0,6.09-2.16,6.09-4.94C-247.9,87.45-250.14,85.4-254,85.4Z" transform="translate(451.13 -44.68)" fill="#d80132"/><path d="M-261.37,45.56l-20.14,23.68h0v53.07h57.46l19.39-23.68V45.56ZM-239.5,90c0,7.3-5.26,13-14.12,13l-5.38,0v8.07h-8.7V77.87h14.32c8.56,0,13.88,4.78,13.88,11.89Z" transform="translate(451.13 -44.68)" fill="#d80132"/><path d="M-346.18,45.56l-20.14,23.68h0v53.07h57.46l19.39-23.68V45.56ZM-337.4,104a8.8,8.8,0,0,0,5.57-1.81,13.5,13.5,0,0,0,1.83-1.69l0-.06.08-.11,5.7,5.63a16.83,16.83,0,0,1-4.91,3.9,18.38,18.38,0,0,1-8.61,1.9A16.86,16.86,0,0,1-355,94.56v-.1c0-9.85,7.61-17.27,17.71-17.27a18.73,18.73,0,0,1,7.83,1.57A15.83,15.83,0,0,1-324,82.88l-5.91,5.84-.5-.61a9.11,9.11,0,0,0-7-3.14c-4.91,0-8.62,4-8.62,9.4v.1C-346,99.88-342.31,104-337.4,104Z" transform="translate(451.13 -44.68)" fill="#d80132"/><path d="M-164.24,91.45V82.19c20-14.44,23.7-17.62,23.7-22.18,0-3.18-3-4.84-6.36-4.84a17.21,17.21,0,0,0-12.3,5l-6.56-7.88c4.91-5.39,12.23-7.67,18.66-7.67,10.85,0,18.65,6.08,18.65,15.34,0,7-5,13.06-16.51,21.07h16.86V91.45Z" transform="translate(451.13 -44.68)" fill="#d80132"/><path d="M-124.3,85.58l6.5-8.29a17.82,17.82,0,0,0,12,4.49c5,0,7.53-2.49,7.53-5.32,0-3.11-2.42-5.32-7.19-5.32a12.45,12.45,0,0,0-9.12,3.46l-8.22-2V45.37h33.44V55.73H-111v8.91A14.36,14.36,0,0,1-101.08,61,14.56,14.56,0,0,1-86.23,76c0,9.95-7.53,16.31-19.48,16.31C-113.87,92.28-120,89.79-124.3,85.58Z" transform="translate(451.13 -44.68)" fill="#d80132"/><path d="M-163.37,118.71c2.12,0,3.36-1.14,4-6.72l1.24-10.81h15v21.14h-4.53V105.15h-6.43l-.82,7.16c-1,8.78-4.18,10.39-8.49,10.39Z" transform="translate(451.13 -44.68)" fill="#d80132"/><path d="M-132.6,122.32V101.18h15v4H-128.1v4.47h10.24v4H-128.1v4.79h10.46v4Z" transform="translate(451.13 -44.68)" fill="#d80132"/><path d="M-102.9,122.32V105.15h-6.18v-4h16.86v4h-6.15v17.18Z" transform="translate(451.13 -44.68)" fill="#d80132"/><rect x="267.05" y="0.88" width="4" height="76.77" fill="#d80132"/></svg>