<?xml version="1.0" encoding="utf-8"?>
<!-- Generator: Adobe Illustrator 20.1.0, SVG Export Plug-In . SVG Version: 6.00 Build 0)  -->
<svg version="1.1" id="Layer_1" xmlns="http://www.w3.org/2000/svg" xmlns:xlink="http://www.w3.org/1999/xlink" x="0px" y="0px"
	 viewBox="227.2 316.3 156.4 121.2" enable-background="new 227.2 316.3 156.4 121.2" xml:space="preserve">
<path fill="#E90000" d="M346.9,338.7c10.5,10.1,17.1,24.1,17.1,39.5c0,25.7-18.1,47.4-42.8,54l0,0l4.5,5.4h37.1
	c12.9-13.3,20.9-31.2,20.9-50.8c0-32.4-21.7-60.1-51.9-70.5L305.4,400l-26.3-83.7c-30.2,10.4-51.9,38.1-51.9,70.5
	c0,19.5,7.9,37.4,20.9,50.8h37l4.6-5.4h-0.1c-24.7-6.6-42.8-28.3-42.8-54c0-15.4,6.5-29.3,17.1-39.5c1-1.2,3-1.8,5-1.5
	c1.9,0.4,3.8,1.7,4.7,4.6l29,92.3c0.9,0.1,1.9,0.1,2.9,0.1c1,0,1.9,0,2.9-0.1l29-92.4c0.8-2.3,2.4-3.9,4.3-4.4
	C343.4,336.9,345.2,337.3,346.9,338.7L346.9,338.7z"/>
</svg>
