<svg id="Capa_1" data-name="Capa 1" xmlns="http://www.w3.org/2000/svg" viewBox="0 0 133.51 121.88"><title>features-shop</title><path d="M249.09,118.56h14.27l17,71.08a3.34,3.34,0,0,0,3.26,2.57h79.81a3.34,3.34,0,0,0,3.25-2.54l12.48-50.41a3.35,3.35,0,0,0-3.25-4.16H274.21l-4.94-20.67a3.34,3.34,0,0,0-3.26-2.57H249.09a3.35,3.35,0,1,0,0,6.7ZM371.61,141.8,360.8,185.51H286.26L275.81,141.8Z" transform="translate(-245.74 -111.86)" fill="#7b499f"/><path d="M290.45,203.12a15.31,15.31,0,1,0,15.31,15.31A15.33,15.33,0,0,0,290.45,203.12Zm0,23.93a8.61,8.61,0,1,1,8.61-8.61A8.62,8.62,0,0,1,290.45,227Z" transform="translate(-245.74 -111.86)" fill="#7b499f"/><path d="M352.48,203.12a15.31,15.31,0,1,0,15.31,15.31A15.33,15.33,0,0,0,352.48,203.12Zm0,23.93a8.61,8.61,0,1,1,8.61-8.61A8.62,8.62,0,0,1,352.48,227Z" transform="translate(-245.74 -111.86)" fill="#7b499f"/></svg>