<svg id="Capa_1" data-name="Capa 1" xmlns="http://www.w3.org/2000/svg" viewBox="0 0 120.4 120.34"><title>features-sport</title><path d="M538.75,209.46a60.64,60.64,0,0,0,15-39.9,58.85,58.85,0,0,0-4.8-23.36A60.37,60.37,0,0,0,536.12,127a61.44,61.44,0,0,0-19.23-12.77,59.37,59.37,0,0,0-46.79,0,59.06,59.06,0,0,0-32,31.93,60.28,60.28,0,0,0,55.37,83.6,54.59,54.59,0,0,0,6.64-.39l.49-.06.17.17a5.06,5.06,0,0,0,.76-.2l.1,0c7.18-1.6,14.15-3.32,20.55-6.8A60.87,60.87,0,0,0,538.75,209.46Zm9.17-33.63a52.36,52.36,0,0,1-9.62,25.31l-.78,1.1-.82-1.07a56.69,56.69,0,0,1-9.6-17.58l-.3-1,1-.28a89.86,89.86,0,0,0,18.67-7.48l1.67-.9Zm-8.1-35.37.73,1A54.34,54.34,0,0,1,548.33,167l0,.61-.52.31a81.86,81.86,0,0,1-21.21,9l-1.08.28-.16-1.11a30.71,30.71,0,0,1-.34-4.42c0-1.21.1-2.38.21-3.57a39.5,39.5,0,0,1,4-14,49.08,49.08,0,0,1,9.62-12.78Zm-33.9-24.2a54.88,54.88,0,0,1,30.27,19.09l1.3,1.62h-1.8l-.13.1c-.07,0-1.78,1.21-5.27,5.49a58.81,58.81,0,0,0-4.41,6.25,46.14,46.14,0,0,0-6.08,18.77c-.13,1.54-.2,2.87-.2,4.06a33.25,33.25,0,0,0,.45,5.85l.18,1-1,.15c-4.2.6-6.63.88-8.13.95l-1.09,0,0-1.09c.22-5.26.33-9.76.33-13.74A194.83,194.83,0,0,0,509.26,143a176.81,176.81,0,0,0-4.52-25.49l-.43-1.61Zm-36.2,4a54.68,54.68,0,0,1,23.72-5.45c2.35,0,3.83.1,4.36.14l.7.05.19.68c4.06,14.66,6.13,31.46,6.13,49.93,0,3.85-.1,8-.33,13.16l0,1-1,0c-1.67-.06-4-.25-7.2-.53l-2.88-.24.24-1.11a51.35,51.35,0,0,0,1-10.18,40.1,40.1,0,0,0-.13-4.05,45.49,45.49,0,0,0-2.75-12.12,60,60,0,0,0-4.87-10.33,64.57,64.57,0,0,0-6.26-8.5A66,66,0,0,0,469.55,122l-1.3-1ZM440.55,155.6a54,54,0,0,1,22.09-31.09l.25-.17h.67l.51.27,3.08,2.34a65.94,65.94,0,0,1,5.86,5.37,71.26,71.26,0,0,1,7,8.14,54.3,54.3,0,0,1,5.87,10.71,40.47,40.47,0,0,1,3.29,13c.09,1.25.14,2.27.14,3.22a50.21,50.21,0,0,1-1,9.56l-.19,1-1-.2a104.13,104.13,0,0,1-12.7-3.51,121.56,121.56,0,0,1-33.47-17.55l-.54-.4Zm23.2,59.14-.59.55-.66-.46a54.53,54.53,0,0,1-17.31-19.49,53.77,53.77,0,0,1-6.41-25.77c0-.81,0-2.63.27-5.7l.13-1.75,1.44,1a127,127,0,0,0,31.67,16.07,108,108,0,0,0,13.07,3.65l1.14.24-.41,1.09C482.39,194.08,474.87,204.36,463.75,214.74Zm34.83,8.78-.17.79h-.81c-.43,0-1.23,0-2,.07s-1.67.07-2.12.07a53.51,53.51,0,0,1-24.14-5.73l-1.26-.63,1-1c11-10.64,18.61-21.5,22.51-32.28l.27-.74.78.09c4.84.55,8,.81,10.48.86l1.06,0-.08,1.06A291.54,291.54,0,0,1,498.58,223.52Zm5.58-.17.29-1.5a308.45,308.45,0,0,0,5-36l.07-.9.9,0a78.52,78.52,0,0,0,10.17-1.13l.86-.14.25.83a63.86,63.86,0,0,0,11.73,21.35l.55.68-.6.64A53.55,53.55,0,0,1,505.65,223Z" transform="translate(-433.35 -109.47)" fill="#7b499f"/></svg>