<?xml version="1.0" encoding="utf-8"?>
<!-- Generator: Adobe Illustrator 21.0.0, SVG Export Plug-In . SVG Version: 6.00 Build 0)  -->
<svg version="1.1" id="Capa_1" xmlns="http://www.w3.org/2000/svg" xmlns:xlink="http://www.w3.org/1999/xlink" x="0px" y="0px"
	 viewBox="0 0 170.6 170.8" style="enable-background:new 0 0 170.6 170.8;" xml:space="preserve">
<style type="text/css">
	.st0{fill:#907866;}
</style>
<g>
	<g id="phone-paused">
		<g>
			<path class="st0" d="M144.5,124.1c-10.2,0-20.4-1.7-30.6-5.1c-2.6-0.9-6,0-8.5,1.7l-18.7,18.7c-23.8-11.9-43.3-32.3-56.1-56.1
				l18.7-18.7c2.5-2.5,3.4-6,1.7-8.5c-2.5-9.3-4.3-19.5-4.3-29.8c0-5.1-3.4-8.5-8.5-8.5H8.5c-5.1,0-8.5,3.4-8.5,8.5
				c0,79.9,64.6,144.5,144.5,144.5c5.1,0,8.5-3.4,8.5-8.5v-29.7C153,127.5,149.6,124.1,144.5,124.1z"/>
		</g>
	</g>
</g>
<g>
	<g>
		<path class="st0" d="M106.8,103.3h-12c0-15.1-12.3-27.5-27.5-27.5v-12C89.1,63.8,106.8,81.5,106.8,103.3z"/>
	</g>
	<g>
		<path class="st0" d="M139,103.3h-12c0-32.9-26.7-59.6-59.6-59.6v-12C106.8,31.6,139,63.8,139,103.3z"/>
	</g>
	<g>
		<path class="st0" d="M170.6,103.3h-12c0-50.3-41-91.3-91.3-91.3V0C124.3,0,170.6,46.3,170.6,103.3z"/>
	</g>
</g>
</svg>
